HIERARCHY
ROOT Hips
{
	OFFSET -0.001795 -0.223333 0.028219
	CHANNELS 6 Xposition Yposition Zposition Zrotation Yrotation Xrotation 
	JOINT LeftUpLeg
	{
		OFFSET 0.069520 -0.091406 -0.006815
		CHANNELS 3 Zrotation Yrotation Xrotation
		JOINT LeftLeg
		{
			OFFSET 0.034277 -0.375199 -0.004496
			CHANNELS 3 Zrotation Yrotation Xrotation
			JOINT LeftFoot
			{
				OFFSET -0.013596 -0.397961 -0.043693
				CHANNELS 3 Zrotation Yrotation Xrotation
				JOINT LeftToe
				{
					OFFSET 0.026358 -0.055791 0.119288
					CHANNELS 3 Zrotation Yrotation Xrotation
					End Site
					{
						OFFSET 0.000000 0.000000 0.000000
					}
				}
			}
		}
	}
	JOINT RightUpLeg
	{
		OFFSET -0.067670 -0.090522 -0.004320
		CHANNELS 3 Zrotation Yrotation Xrotation
		JOINT RightLeg
		{
			OFFSET -0.038290 -0.382569 -0.008850
			CHANNELS 3 Zrotation Yrotation Xrotation
			JOINT RightFoot
			{
				OFFSET 0.015774 -0.398415 -0.042312
				CHANNELS 3 Zrotation Yrotation Xrotation
				JOINT RightToe
				{
					OFFSET -0.025372 -0.048144 0.123348
					CHANNELS 3 Zrotation Yrotation Xrotation
					End Site
					{
						OFFSET 0.000000 0.000000 0.000000
					}
				}
			}
		}
	}
	JOINT Spine
	{
		OFFSET -0.002533 0.108963 -0.026696
		CHANNELS 3 Zrotation Yrotation Xrotation
		JOINT Spine1
		{
			OFFSET 0.005487 0.135180 0.001092
			CHANNELS 3 Zrotation Yrotation Xrotation
			JOINT Spine2
			{
				OFFSET 0.001457 0.052922 0.025425
				CHANNELS 3 Zrotation Yrotation Xrotation
				JOINT Neck
				{
					OFFSET -0.002778 0.213870 -0.042857
					CHANNELS 3 Zrotation Yrotation Xrotation
					JOINT Head
					{
						OFFSET 0.005152 0.064970 0.051349
						CHANNELS 3 Zrotation Yrotation Xrotation
						End Site
						{
							OFFSET 0.000000 0.000000 0.000000
						}
					}
				}
				JOINT LeftShoulder
				{
					OFFSET 0.078845 0.121749 -0.034090
					CHANNELS 3 Zrotation Yrotation Xrotation
					JOINT LeftArm
					{
						OFFSET 0.090977 0.030469 -0.008868
						CHANNELS 3 Zrotation Yrotation Xrotation
						JOINT LeftForeArm
						{
							OFFSET 0.259612 -0.012772 -0.027456
							CHANNELS 3 Zrotation Yrotation Xrotation
							JOINT LeftHand
							{
								OFFSET 0.249234 0.008986 -0.001171
								CHANNELS 3 Zrotation Yrotation Xrotation
								End Site
								{
									OFFSET 0.000000 0.000000 0.000000
								}
							}
						}
					}
				}
				JOINT RightShoulder
				{
					OFFSET -0.081759 0.118833 -0.038615
					CHANNELS 3 Zrotation Yrotation Xrotation
					JOINT RightArm
					{
						OFFSET -0.096012 0.032551 -0.009143
						CHANNELS 3 Zrotation Yrotation Xrotation
						JOINT RightForeArm
						{
							OFFSET -0.253742 -0.013329 -0.021401
							CHANNELS 3 Zrotation Yrotation Xrotation
							JOINT RightHand
							{
								OFFSET -0.255298 0.007772 -0.005559
								CHANNELS 3 Zrotation Yrotation Xrotation
								End Site
								{
									OFFSET 0.000000 0.000000 0.000000
								}
							}
						}
					}
				}
			}
		}
	}
}
MOTION
Frames: 13
Frame Time: 0.050000
0.000000 0.945592 0.000000 0.581236 7.388034 5.522160 1.256194 0.138906 2.538381 0.351644 0.176376 -6.116865 0.052246 3.675245 7.271488 0.000000 0.000000 0.000000 -0.294000 0.292734 -2.789839 -1.570166 0.192888 0.191488 -1.102513 -3.771425 2.955002 0.000000 0.000000 0.000000 1.138072 0.131802 -3.596172 1.472578 -0.587013 -1.834404 -1.892315 -1.038891 8.731684 3.231991 -0.384999 -17.337107 0.000000 0.000000 0.000000 -7.133661 -3.592868 0.559620 -18.057344 -2.252309 -1.828442 11.047745 -6.615872 -0.410949 0.000000 0.000000 0.000000 1.560335 2.850803 0.996541 17.607324 0.489015 -1.830073 -10.128714 7.180425 -0.136398 0.000000 0.000000 0.000000 
-0.000179 0.944091 0.000260 0.562633 7.690157 5.577176 1.163049 0.198126 3.319769 0.544806 0.211073 -7.561938 0.037716 3.594384 7.103281 0.000000 0.000000 0.000000 -0.587769 0.226240 -2.098110 -0.937396 0.059535 -1.109883 -1.572200 -4.821216 2.692833 0.000000 0.000000 0.000000 1.526906 0.122556 -3.389809 0.772361 -0.296053 -1.349017 -1.650958 -1.154278 8.225824 2.301007 0.408977 -19.690799 0.000000 0.000000 0.000000 -4.686391 -4.251892 1.030098 -17.777242 -2.410951 -1.775691 11.025944 -4.627561 -0.283974 0.000000 0.000000 0.000000 -0.265803 1.137456 0.411772 17.275986 -0.171513 -1.828277 -9.917827 7.884156 -0.163590 0.000000 0.000000 0.000000 
-0.000606 0.943686 0.000479 0.640263 7.357279 5.495076 1.498182 0.169746 3.209996 0.405117 0.185374 -6.487162 -0.130265 3.039547 6.578581 0.000000 0.000000 0.000000 -0.903893 0.275258 -2.616083 0.170174 -0.022656 -0.047234 -1.651469 -4.756092 1.706992 0.000000 0.000000 0.000000 2.007042 0.102989 -2.967451 0.351203 0.022900 -3.796646 -1.801244 -0.488479 10.551312 2.980904 0.014801 -19.180266 0.000000 0.000000 0.000000 -3.115943 -3.822960 0.991309 -16.864975 -3.690280 -1.623642 10.235546 -4.550749 -0.257980 0.000000 0.000000 0.000000 -0.327663 1.042940 0.379473 15.956125 -0.531390 -1.802326 -11.492137 6.010442 -0.088525 0.000000 0.000000 0.000000 
-0.001489 0.943188 0.000561 0.658708 8.304561 5.598234 1.696854 0.147534 3.180392 0.283947 0.170997 -5.915538 -0.261653 2.550271 5.893618 0.000000 0.000000 0.000000 -0.807924 0.251798 -2.362250 1.073394 -0.128820 0.096293 -1.951860 -5.480868 1.689031 0.000000 0.000000 0.000000 1.754426 0.129340 -3.554671 0.393113 -0.031302 -2.943849 -1.622293 -1.116921 10.231412 2.368829 0.347475 -19.097424 0.000000 0.000000 0.000000 -2.870991 -4.304519 1.192061 -15.831234 -3.531143 -1.537776 11.853296 -2.839191 -0.203757 0.000000 0.000000 0.000000 -1.511119 1.368780 0.515312 14.453480 -2.163503 -1.708501 -10.720975 4.509480 0.016303 0.000000 0.000000 0.000000 
-0.003053 0.943426 0.000456 0.756247 8.655321 5.473194 1.671130 0.158383 3.352014 0.504190 0.153316 -5.648983 -0.689170 1.849989 6.011490 0.000000 0.000000 0.000000 -0.710651 0.253480 -2.384314 1.427266 -0.159859 0.718749 -2.780714 -7.534877 1.757276 0.000000 0.000000 0.000000 1.522190 0.104218 -3.023571 0.882072 -0.201301 -3.673227 -1.904217 -0.872106 10.101260 3.025790 -0.097926 -17.960467 0.000000 0.000000 0.000000 -2.888742 -4.271229 1.151051 -14.284210 -4.135468 -1.333439 11.325084 -2.189544 -0.156162 0.000000 0.000000 0.000000 -1.935092 0.533303 0.231536 13.361195 -2.423079 -1.589000 -10.772348 4.113253 0.050229 0.000000 0.000000 0.000000 
-0.005372 0.943335 0.000140 0.677708 9.021136 5.262575 1.442547 0.163194 3.203433 1.542986 0.082865 -5.006477 -1.056120 1.058290 5.718178 0.000000 0.000000 0.000000 -0.480029 0.229097 -2.132721 1.758545 -0.202770 0.826907 -3.285859 -8.770739 1.717502 0.000000 0.000000 0.000000 1.479095 0.086274 -2.617394 1.206733 -0.389947 -2.880735 -1.772117 -1.251561 9.253316 2.460394 0.196952 -17.747162 0.000000 0.000000 0.000000 -2.866885 -3.499172 0.880635 -13.604662 -4.912836 -1.212680 12.572707 -1.373663 -0.119293 0.000000 0.000000 0.000000 -3.316747 0.580094 0.289621 13.237411 -2.862627 -1.564053 -10.858352 3.359874 0.095200 0.000000 0.000000 0.000000 
-0.008486 0.943675 -0.000550 0.877955 8.919933 5.099162 1.632579 0.145745 3.121012 1.404780 0.070429 -4.522659 -1.094784 0.946933 5.655024 0.000000 0.000000 0.000000 -0.523611 0.234605 -2.195877 1.883638 -0.213150 1.170733 -3.519676 -9.358292 1.817662 0.000000 0.000000 0.000000 1.534074 0.060308 -2.044335 1.130018 -0.318315 -3.489654 -1.964002 -1.004979 9.497982 2.557775 0.110466 -17.216114 0.000000 0.000000 0.000000 -3.116944 -3.223228 0.745336 -12.222641 -5.449526 -1.078784 12.853449 -0.649233 -0.072178 0.000000 0.000000 0.000000 -3.445299 0.096837 0.125139 12.436623 -3.876590 -1.517213 -10.408638 3.582234 0.084114 0.000000 0.000000 0.000000 
-0.012214 0.943990 -0.001478 0.887116 9.099899 5.050317 1.938692 0.098507 2.720044 1.546734 0.026879 -3.661675 -1.191526 0.676824 5.457853 0.000000 0.000000 0.000000 -0.247555 0.270378 -2.554659 1.913883 -0.209552 1.721805 -3.673397 -9.700155 1.570952 0.000000 0.000000 0.000000 1.651021 0.041019 -1.672350 1.217845 -0.355748 -3.481353 -2.044965 -0.920468 9.185037 2.362829 0.241428 -17.115260 0.000000 0.000000 0.000000 -3.403917 -2.916846 0.591807 -11.244103 -5.827450 -0.981822 13.362797 0.057839 -0.023459 0.000000 0.000000 0.000000 -3.371633 -0.165433 0.033216 11.564000 -4.810818 -1.427571 -10.054770 3.155270 0.110048 0.000000 0.000000 0.000000 
-0.016333 0.944684 -0.002757 0.990700 8.997108 5.061210 2.168266 0.056857 2.272860 1.336673 0.016841 -3.114362 -1.353006 0.262149 5.258912 0.000000 0.000000 0.000000 -0.119297 0.287125 -2.720015 2.220902 -0.250363 1.877358 -3.637855 -9.584395 1.363594 0.000000 0.000000 0.000000 1.628449 0.031966 -1.482590 1.224928 -0.351561 -3.611474 -2.160599 -0.923108 9.266490 2.115955 0.392540 -17.186910 0.000000 0.000000 0.000000 -3.275801 -2.443622 0.437210 -10.742860 -5.923085 -0.950841 13.840456 0.475842 0.010165 0.000000 0.000000 0.000000 -3.437192 0.106363 0.124326 11.095904 -6.125586 -1.401509 -9.887204 3.317889 0.098632 0.000000 0.000000 0.000000 
-0.020699 0.945124 -0.004232 1.022161 8.832918 5.167839 2.566956 -0.006831 1.605246 1.096179 0.013649 -2.651714 -1.135483 0.583901 5.118481 0.000000 0.000000 0.000000 0.115779 0.302993 -2.867540 2.338329 -0.268216 1.663345 -3.676119 -9.663650 1.266948 0.000000 0.000000 0.000000 1.754571 0.014747 -1.193715 1.135532 -0.290827 -3.989731 -2.010613 -1.007300 9.372412 1.883679 0.537319 -17.477348 0.000000 0.000000 0.000000 -3.296900 -2.323058 0.402266 -10.529140 -5.737246 -0.953812 14.135895 1.096218 0.068775 0.000000 0.000000 0.000000 -3.377671 -0.197704 0.030616 10.448307 -6.764907 -1.314636 -9.764952 3.438577 0.087975 0.000000 0.000000 0.000000 
-0.025065 0.945165 -0.005796 1.149070 8.609927 5.148900 2.829939 -0.042024 1.226910 0.824181 0.014147 -2.189260 -0.982954 0.799297 5.010465 0.000000 0.000000 0.000000 0.368686 0.305978 -2.890903 2.472117 -0.286014 1.612639 -3.923785 -10.259355 1.133271 0.000000 0.000000 0.000000 1.813731 0.011090 -1.137508 1.074436 -0.280965 -3.750473 -2.227977 -0.948193 9.213010 1.764002 0.621813 -17.647420 0.000000 0.000000 0.000000 -3.397358 -2.706259 0.532063 -10.128790 -5.211674 -0.942883 14.425796 2.047961 0.157372 0.000000 0.000000 0.000000 -3.173673 0.002098 0.092781 10.204002 -7.888247 -1.298751 -9.686976 3.307736 0.093001 0.000000 0.000000 0.000000 
-0.029182 0.945124 -0.007198 1.277581 8.373231 5.047172 3.313098 -0.084954 0.879569 0.313357 0.028646 -1.555960 -0.712172 1.205948 4.842242 0.000000 0.000000 0.000000 0.458805 0.313205 -2.962952 2.658567 -0.309954 1.657506 -4.003004 -10.440113 1.031083 0.000000 0.000000 0.000000 1.951629 -0.006302 -0.841700 0.949238 -0.223294 -3.845933 -2.125757 -1.077733 9.250118 1.545180 0.754568 -18.028524 0.000000 0.000000 0.000000 -3.974097 -2.765255 0.509492 -9.960304 -4.556811 -0.960400 14.772537 2.782349 0.237791 0.000000 0.000000 0.000000 -2.617759 -0.087037 0.054705 9.793717 -9.203906 -1.254929 -10.158979 4.113261 0.040583 0.000000 0.000000 0.000000 
-0.032836 0.945071 -0.008416 1.488251 7.770233 5.114066 3.283782 -0.102266 0.469053 0.234998 0.016315 -1.047413 -0.423166 1.720717 4.851097 0.000000 0.000000 0.000000 0.364419 0.336063 -3.202396 2.701892 -0.310763 1.709602 -3.909010 -10.161403 0.758708 0.000000 0.000000 0.000000 1.852363 -0.016311 -0.618656 0.954019 -0.245239 -3.605825 -2.135539 -0.998813 8.902967 1.116960 0.988584 -18.114981 0.000000 0.000000 0.000000 -4.408857 -3.002409 0.567014 -9.648292 -3.571855 -0.966094 14.618049 3.938133 0.348316 0.000000 0.000000 0.000000 -2.154140 0.065796 0.099047 9.797332 -10.267910 -1.271541 -10.385974 4.147256 0.031416 0.000000 0.000000 0.000000 
